<?xml version="1.0" encoding="UTF-8"?>
<svg width="385px" height="437px" viewBox="0 0 385 437" xmlns="http://www.w3.org/2000/svg" xmlns:xlink="http://www.w3.org/1999/xlink" version="1.1">
 <!-- Generated by Pixelmator Pro 2.0.1 -->
 <g id="layer1">
  <path id="Rhombus" d="M45 282 L10 307 14 325 23 332 65 312 59 339 76 350 93 344 125 279 171 252 176 307 132 375 145 392 162 389 172 373 180 422 193 427 209 418 209 374 235 394 255 377 211 311 211 253 263 277 292 342 308 350 326 342 319 311 360 332 378 321 369 300 343 281 365 272 363 245 279 246 236 218 281 190 361 190 366 166 349 154 378 121 365 104 320 124 325 93 298.875 88.355 262 154 213 182 211.143 130.017 254 58 230 41 209 70 207 11 187 10 178.099 13.794 175 59 148 43 133 50 135 69 174 128 171 181 122 155 83 83 60 98 62 119 18 103 8 118 13 137 40 155 16 169 24 192 103 189 152 218 106 246 22 246 21 270 45 282 Z" fill="#ffffff" fill-opacity="1" stroke="none"/>
  <path id="path3210" d="M192.24 0 C178.437 0 166.913 11.525 166.913 25.327 L166.913 42.078 C162.201 37.982 156.131 35.774 150.028 35.836 145.136 35.885 140.17 37.391 135.913 40.325 124.547 48.158 121.59 64.178 129.425 75.547 L166.914 129.954 166.914 150.613 166.914 174.276 128.521 152.109 100.145 92.442 C94.218 79.975 78.868 74.52 66.397 80.448 61.714 82.674 57.939 86.224 55.453 90.431 52.35 95.683 51.222 102.041 52.415 108.176 L37.909 99.801 C25.954 92.898 10.22 97.136 3.324 109.081 -3.572 121.025 0.642 136.766 12.593 143.666 L27.099 152.041 C21.192 154.07 16.242 158.222 13.24 163.543 10.829 167.817 9.657 172.865 10.069 178.016 11.169 191.775 23.57 202.344 37.328 201.244 L103.193 195.973 141.586 218.14 121.083 229.977 103.193 240.307 37.328 235.047 C23.57 233.947 11.169 244.516 10.069 258.275 9.657 263.426 10.829 268.474 13.24 272.748 16.24 278.067 21.185 282.22 27.087 284.25 L12.592 292.615 C0.63 299.521 -3.577 315.261 3.323 327.211 10.223 339.162 25.964 343.376 37.908 336.479 L52.414 328.104 C51.219 334.24 52.344 340.6 55.452 345.86 57.948 350.086 61.744 353.621 66.396 355.832 78.855 361.755 94.214 356.323 100.144 343.85 L128.52 284.172 146.399 273.843 166.913 262.005 166.913 285.68 166.913 306.339 129.424 360.746 C121.589 372.115 124.546 388.135 135.912 395.969 140.169 398.902 145.135 400.409 150.027 400.458 156.13 400.519 162.199 398.311 166.912 394.215 L166.912 410.966 C166.912 424.769 178.437 436.293 192.239 436.293 206.042 436.293 217.566 424.768 217.566 410.966 L217.566 394.215 C222.279 398.311 228.348 400.519 234.451 400.458 239.344 400.409 244.309 398.902 248.566 395.969 259.932 388.136 262.889 372.115 255.054 360.746 L217.565 306.339 217.565 285.68 217.565 262.005 255.947 284.172 284.323 343.85 C290.253 356.323 305.612 361.756 318.071 355.832 322.723 353.621 326.519 350.086 329.015 345.86 332.123 340.6 333.248 334.24 332.053 328.104 L346.559 336.479 C358.51 343.379 374.249 339.172 381.155 327.211 388.061 315.25 383.83 299.517 371.875 292.615 L357.38 284.25 C363.283 282.22 368.227 278.067 371.227 272.748 373.638 268.474 374.81 263.426 374.398 258.275 373.298 244.516 360.897 233.947 347.139 235.047 L281.274 240.307 263.384 229.977 242.881 218.14 281.274 195.973 347.139 201.244 C360.897 202.344 373.298 191.776 374.398 178.016 374.81 172.865 373.638 167.817 371.227 163.543 368.225 158.221 363.275 154.07 357.368 152.041 L371.874 143.666 C383.819 136.769 388.056 121.036 381.154 109.081 374.251 97.125 358.519 92.895 346.558 99.801 L332.052 108.176 C333.245 102.042 332.117 95.683 329.014 90.431 326.528 86.224 322.753 82.674 318.07 80.448 305.6 74.519 290.25 79.974 284.322 92.442 L255.946 152.109 217.564 174.276 217.564 150.613 217.564 129.954 255.053 75.547 C262.888 64.178 259.931 48.158 248.565 40.325 244.308 37.391 239.342 35.885 234.45 35.836 228.347 35.774 222.278 37.982 217.565 42.078 L217.565 25.327 C217.565 11.524 206.04 0 192.238 0 Z M192.24 13.077 C199.028 13.077 204.49 18.54 204.49 25.328 L204.49 82.694 224.111 54.229 C226.518 50.736 230.388 48.874 234.318 48.913 236.676 48.937 239.057 49.647 241.152 51.091 246.741 54.943 248.142 62.543 244.29 68.132 L204.49 125.889 204.49 150.613 204.49 196.924 266.01 161.401 296.128 98.06 C299.043 91.93 306.324 89.339 312.455 92.253 314.754 93.346 316.56 95.058 317.76 97.088 319.759 100.472 320.084 104.748 318.262 108.579 L303.421 139.803 353.093 111.125 C358.972 107.732 366.439 109.736 369.833 115.615 373.227 121.493 371.222 128.95 365.344 132.344 L315.661 161.022 350.134 163.791 C354.363 164.129 357.908 166.544 359.839 169.967 360.997 172.02 361.571 174.443 361.369 176.98 360.827 183.746 354.946 188.755 348.18 188.214 L278.262 182.619 216.742 218.142 256.854 241.303 278.263 253.665 348.181 248.081 C354.947 247.54 360.828 252.55 361.37 259.315 361.572 261.852 360.998 264.275 359.84 266.328 357.909 269.751 354.364 272.166 350.135 272.504 L315.673 275.262 365.345 303.94 C371.224 307.334 373.228 314.801 369.834 320.68 366.441 326.558 358.973 328.552 353.094 325.158 L303.422 296.48 318.263 327.704 C320.085 331.536 319.76 335.823 317.761 339.206 316.562 341.236 314.755 342.938 312.456 344.031 306.326 346.945 299.044 344.365 296.129 338.235 L266.011 274.883 204.491 239.36 204.491 285.682 204.491 310.406 244.291 368.163 C248.143 373.752 246.742 381.353 241.153 385.204 239.058 386.648 236.677 387.358 234.319 387.381 230.389 387.421 226.519 385.559 224.112 382.066 L204.491 353.601 204.491 410.967 C204.491 417.754 199.028 423.217 192.241 423.217 185.453 423.217 179.991 417.754 179.991 410.967 L179.991 353.601 160.37 382.066 C157.963 385.559 154.093 387.421 150.163 387.381 147.805 387.358 145.425 386.648 143.329 385.204 137.74 381.352 136.339 373.752 140.191 368.163 L179.991 310.406 179.991 285.682 179.991 239.36 139.867 262.521 118.459 274.883 88.341 338.235 C85.426 344.365 78.145 346.945 72.014 344.031 69.715 342.938 67.909 341.236 66.709 339.206 64.71 335.823 64.385 331.535 66.207 327.704 L81.059 296.469 31.376 325.158 C25.497 328.552 18.041 326.558 14.647 320.68 11.253 314.802 13.246 307.334 19.125 303.94 L68.797 275.262 34.335 272.504 C30.106 272.166 26.561 269.751 24.63 266.328 23.472 264.275 22.898 261.852 23.1 259.315 23.642 252.549 29.523 247.54 36.289 248.081 L106.207 253.665 127.615 241.303 167.739 218.142 106.207 182.619 36.289 188.214 C29.523 188.755 23.642 183.745 23.1 176.98 22.898 174.442 23.472 172.02 24.63 169.967 26.561 166.544 30.106 164.129 34.335 163.791 L68.808 161.033 19.125 132.344 C13.246 128.95 11.253 121.494 14.647 115.615 18.04 109.737 25.497 107.732 31.376 111.126 L81.059 139.815 66.207 108.58 C64.385 104.748 64.71 100.472 66.709 97.089 67.909 95.058 69.715 93.346 72.014 92.253 78.144 89.339 85.426 91.93 88.341 98.06 L118.459 161.401 179.991 196.924 179.991 150.613 179.991 125.889 140.191 68.132 C136.339 62.543 137.74 54.942 143.329 51.091 145.425 49.647 147.805 48.937 150.163 48.914 154.093 48.874 157.963 50.736 160.37 54.229 L179.991 82.694 179.991 25.328 C179.991 18.54 185.454 13.077 192.241 13.077 Z" fill="#000000" fill-opacity="1" stroke="none"/>
 </g>
</svg>
